<svg aria-hidden="true" style="position:absolute;width:0;height:0;overflow:hidden" xmlns="http://www.w3.org/2000/svg">
  <defs>
    <symbol id="icon-play" viewBox="0 0 32 32">
      <path d="M10.9 24V8.73l14.55 7.63L10.91 24z"/>
      <path stroke-width=".73" d="M31.64 16A15.64 15.64 0 1 1 .36 16a15.64 15.64 0 0 1 31.28 0z"/>
    </symbol>
    <symbol id="icon-dollar" viewBox="0 0 32 32">
      <path d="M16 2.67c-7.33 0-13.33 6-13.33 13.33s6 13.33 13.33 13.33 13.33-6 13.33-13.33S23.33 2.67 16 2.67zm0 24c-5.87 0-10.67-4.8-10.67-10.67S10.13 5.33 16 5.33 26.67 10.13 26.67 16 21.87 26.67 16 26.67z"/>
      <path d="M17.73 14.67h-3.46a1.2 1.2 0 1 1 0-2.4h4.93c.8 0 1.33-.54 1.33-1.34S20 9.6 19.2 9.6h-1.87V8.4c0-.8-.53-1.33-1.33-1.33s-1.33.53-1.33 1.33v1.2h-.4a3.87 3.87 0 0 0 0 7.74h3.33c.67 0 1.2.53 1.2 1.2s-.53 1.2-1.2 1.2h-4.93c-.8 0-1.34.53-1.34 1.33s.54 1.33 1.34 1.33h2v1.2c0 .8.53 1.33 1.33 1.33s1.33-.53 1.33-1.33v-1.2h.4a3.87 3.87 0 0 0 0-7.73z"/>
    </symbol>
    <symbol id="icon-spoon" viewBox="0 0 32 32">
      <path d="M15.45 14.1a5.15 5.15 0 0 1-1.17-3.28c0-4.32 5.18-8.64 10.36-8.64a5.18 5.18 0 0 1 5.18 5.18c0 5.19-4.32 10.37-8.65 10.37-1.16 0-2.33-.4-3.28-1.18L5.13 29.31a1.73 1.73 0 0 1-2.44-2.44L15.45 14.1z"/>
    </symbol>
    <symbol id="icon-chocolate_bar" viewBox="0 0 32 32">
      <path d="m13.51.47 8.6 8.62.1-.1a.98.98 0 0 1 1.35-.01l1 1c.35.35.36.88.1 1.25h-.01l-.17.22 7.04 7.04a1.6 1.6 0 0 1 0 2.27L20.75 31.53a1.6 1.6 0 0 1-2.27 0l-5.08-5.08a.95.95 0 0 1-.7.36.96.96 0 0 1-.73-.28l-2.98-2.97a.98.98 0 0 1-.01-1.35v-.01l.1-.09-8.6-8.6a1.6 1.6 0 0 1 0-2.26L11.24.47a1.6 1.6 0 0 1 2.26 0zm7.52 9.7-2-2.01a.68.68 0 0 0-.98 0l-4.09 4.09a.69.69 0 0 0-.15.76c.04.08.09.16.15.22l2 2 .7-.7-1.79-1.79 3.67-3.68 1.8 1.8.7-.7zm-5.8 5.79-2-2a.68.68 0 0 0-.97 0l-4.1 4.1a.68.68 0 0 0 0 .97l2 2 .7-.7-1.8-1.79 3.68-3.67 1.8 1.79.69-.7zM7.8 7.08l4.09 4.09c.27.27.7.27.97-.01l4.09-4.1a.65.65 0 0 0 .2-.47h.02a.7.7 0 0 0-.2-.5l-4.1-4.08a.69.69 0 0 0-.98 0l-4.1 4.1a.68.68 0 0 0 0 .97zM2 12.88l4.1 4.08c.27.28.7.28.96 0l4.1-4.09a.66.66 0 0 0 .2-.49h.01a.68.68 0 0 0-.2-.49l-4.1-4.1a.68.68 0 0 0-.97 0L2 11.9a.68.68 0 0 0 0 .97zm7.93 10 2.7 2.7 11-14.9-.74-.75L9.93 22.88z"/>
      <path d="m13.51.47 8.6 8.62.1-.1a.98.98 0 0 1 1.35-.01l1 1c.35.35.36.88.1 1.25h-.01l-.17.22 7.04 7.04a1.6 1.6 0 0 1 0 2.27L20.75 31.53a1.6 1.6 0 0 1-2.27 0l-5.08-5.08a.95.95 0 0 1-.7.36.96.96 0 0 1-.73-.28l-2.98-2.97a.98.98 0 0 1-.01-1.35v-.01l.1-.09-8.6-8.6a1.6 1.6 0 0 1 0-2.26L11.24.47a1.6 1.6 0 0 1 2.26 0zm7.52 9.7-2-2.01a.68.68 0 0 0-.98 0l-4.09 4.09a.69.69 0 0 0-.15.76c.04.08.09.16.15.22l2 2 .7-.7-1.79-1.79 3.67-3.68 1.8 1.8.7-.7zm-5.8 5.79-2-2a.68.68 0 0 0-.97 0l-4.1 4.1a.68.68 0 0 0 0 .97l2 2 .7-.7-1.8-1.79 3.68-3.67 1.8 1.79.69-.7zM7.8 7.08l4.09 4.09c.27.27.7.27.97-.01l4.09-4.1a.65.65 0 0 0 .2-.47h.02a.7.7 0 0 0-.2-.5l-4.1-4.08a.69.69 0 0 0-.98 0l-4.1 4.1a.68.68 0 0 0 0 .97zM2 12.88l4.1 4.08c.27.28.7.28.96 0l4.1-4.09a.66.66 0 0 0 .2-.49h.01a.68.68 0 0 0-.2-.49l-4.1-4.1a.68.68 0 0 0-.97 0L2 11.9a.68.68 0 0 0 0 .97zm7.93 10 2.7 2.7 11-14.9-.74-.75L9.93 22.88z"/>
    </symbol>
    <symbol id="icon-scroll-down" viewBox="0 0 32 32">
      <path d="M16.95 17.87a1.33 1.33 0 0 1-1.9 0l-6.1-6.12a1.33 1.33 0 1 0-1.9 1.88l6.12 6.12a4 4 0 0 0 5.66 0l6.12-6.12a1.34 1.34 0 0 0-1.9-1.88l-6.1 6.12z"/>
    </symbol>
    <symbol id="icon-chocolate" viewBox="0 0 32 32">
      <path fill="#fcf1e0" style="fill:var(--color1, #fcf1e0)" d="M3.94 20.08 14.72 2.65l.64-.67 8.24 5.49.05 3.31 2.01 3.28-8.88 14.08-12.84-8.06z"/>
      <path fill="none" stroke="#fd9222" style="stroke:var(--color2, #fd9222)" stroke-linejoin="round" stroke-linecap="round" stroke-width="2.67" d="M21.64 23.88 7.45 15.02m3.91-6.42 14.19 8.86m-14.92 8.4L22.37 6.61m4.8 8.18c-3.03-1.9-4.23-3.38-2.27-6.6l-9.63-6L3.54 21.42l14.18 8.87 9.46-15.51z"/>
    </symbol>
    <symbol id="icon-twitter" viewBox="0 0 32 32">
      <path stroke-linejoin="round" stroke-linecap="round" stroke-width="2.67" d="M30.67 4c-1.28.9-2.7 1.59-4.19 2.04a5.98 5.98 0 0 0-10.48 4v1.33c-2.34.06-4.66-.46-6.76-1.51S4.68 6.3 3.34 4.38c0 0-4.67 12.95 7.33 18.29a15.52 15.52 0 0 1-9.34 2.66C13.33 32 28 25.33 28 10c0-.37-.04-.74-.1-1.1A10.29 10.29 0 0 0 30.66 4z"/>
    </symbol>
    <symbol id="icon-instagram" viewBox="0 0 32 32">
      <path stroke-linejoin="round" stroke-linecap="round" stroke-width="2.67" d="M22.67 2.67H9.33a6.67 6.67 0 0 0-6.66 6.66v13.34a6.67 6.67 0 0 0 6.66 6.66h13.34a6.67 6.67 0 0 0 6.66-6.66V9.33a6.67 6.67 0 0 0-6.66-6.66z"/>
      <path stroke-linejoin="round" stroke-linecap="round" stroke-width="2.67" d="M21.33 15.16a5.33 5.33 0 1 1-10.54 1.57 5.33 5.33 0 0 1 10.54-1.57zM23.33 8.67h.02"/>
    </symbol>
    <symbol id="icon-search" viewBox="0 0 32 32">
      <path d="m31 27.23-7.57-6.45a3.39 3.39 0 0 0-2.3-1 12 12 0 1 0-1.34 1.34c-.04.69.29 1.52 1 2.3l6.44 7.59c1.1 1.22 2.9 1.33 4 .23s1-2.9-.22-4zM12 20a8 8 0 1 1 0-16 8 8 0 0 1 0 16z"/>
    </symbol>

    <symbol id="icon-Group" viewBox="0 0 43 32">
<path fill="#ffd700" style="fill: var(--color1, #ffd700)" d="M42.442 0.078h-42.119v31.344h42.119v-31.344z"></path>
<path fill="#0057b7" style="fill: var(--color2, #0057b7)" d="M0.324 0.078h42.119v15.672h-42.119v-15.672z"></path>
</symbol>
<symbol id="icon-Mastercard" viewBox="0 0 51 32">
<path fill="#ed0006" style="fill: var(--color3, #ed0006)" d="M25.6 26.935c-2.556 2.194-5.873 3.518-9.496 3.518-8.086 0-14.641-6.593-14.641-14.726s6.555-14.726 14.641-14.726c3.624 0 6.94 1.324 9.496 3.518 2.557-2.194 5.873-3.518 9.497-3.518 8.086 0 14.64 6.593 14.64 14.726s-6.555 14.726-14.64 14.726c-3.624 0-6.94-1.324-9.497-3.518z"></path>
<path fill="#f9a000" style="fill: var(--color4, #f9a000)" d="M25.6 26.935c3.148-2.701 5.144-6.72 5.144-11.209s-1.996-8.507-5.144-11.208c2.556-2.194 5.873-3.518 9.497-3.518 8.086 0 14.64 6.593 14.64 14.726s-6.555 14.726-14.64 14.726c-3.624 0-6.94-1.324-9.497-3.518z"></path>
<path fill="#ff5e00" style="fill: var(--color5, #ff5e00)" d="M25.6 26.935c3.148-2.701 5.144-6.72 5.144-11.208s-1.996-8.507-5.144-11.208c-3.148 2.701-5.144 6.72-5.144 11.208s1.996 8.507 5.144 11.208z"></path>
</symbol>
<symbol id="icon-close" viewBox="0 0 32 32">
<path stroke-linejoin="round" stroke-linecap="round" stroke-miterlimit="4" stroke-width="2.2857" d="M24 8l-16 16"></path>
<path stroke-linejoin="round" stroke-linecap="round" stroke-miterlimit="4" stroke-width="2.2857" d="M8 8l16 16"></path>
</symbol>
  </defs>
</svg>
